<!DOCTYPE svg PUBLIC "-//W3C//DTD SVG 1.1//EN" "http://www.w3.org/Graphics/SVG/1.1/DTD/svg11.dtd">
<!-- Uploaded to: SVG Repo, www.svgrepo.com, Transformed by: SVG Repo Mixer Tools -->
<svg fill="#ffffff" width="52px" height="56px" viewBox="-2 -2 24 24" xmlns="http://www.w3.org/2000/svg" preserveAspectRatio="xMinYMin" class="jam jam-share-alt" stroke="#ffffff">
<g id="SVGRepo_bgCarrier" stroke-width="0"/>
<g id="SVGRepo_tracerCarrier" stroke-linecap="round" stroke-linejoin="round"/>
<g id="SVGRepo_iconCarrier">
<path d="M16 6a2 2 0 1 0 0-4 2 2 0 0 0 0 4zM7.928 9.24a4.02 4.02 0 0 1-.026 1.644l5.04 2.537a4 4 0 1 1-.867 1.803l-5.09-2.562a4 4 0 1 1 .083-5.228l5.036-2.522a4 4 0 1 1 .929 1.772L7.928 9.24zM4 12a2 2 0 1 0 0-4 2 2 0 0 0 0 4zm12 6a2 2 0 1 0 0-4 2 2 0 0 0 0 4z"/>
</g>
</svg>